<svg width="82" height="82" viewBox="0 0 82 82" fill="none" xmlns="http://www.w3.org/2000/svg">
<path d="M67.96 46V36L65.672 37.424L65.16 36.64L68.184 34.768H68.888V46H67.96ZM74.341 46.112C73.7223 46.112 73.1303 45.9573 72.565 45.648C72.0103 45.328 71.5783 44.9067 71.269 44.384L72.053 43.856C72.3303 44.2827 72.661 44.6133 73.045 44.848C73.4397 45.072 73.8717 45.184 74.341 45.184C75.109 45.184 75.701 44.96 76.117 44.512C76.5437 44.0533 76.757 43.4133 76.757 42.592C76.757 41.8667 76.5703 41.2693 76.197 40.8C75.8237 40.32 75.301 40.08 74.629 40.08C74.2557 40.08 73.8983 40.1813 73.557 40.384C73.2157 40.5867 72.9863 40.8427 72.869 41.152H71.989V34.8H77.301V35.696H72.949V39.872C73.1623 39.6693 73.4183 39.5093 73.717 39.392C74.0263 39.264 74.3357 39.2 74.645 39.2C75.2317 39.2 75.7543 39.3387 76.213 39.616C76.6717 39.8827 77.029 40.272 77.285 40.784C77.5517 41.2853 77.685 41.888 77.685 42.592C77.685 43.7227 77.3757 44.592 76.757 45.2C76.1383 45.808 75.333 46.112 74.341 46.112Z" fill="white"/>
<circle cx="41" cy="41" r="40.5" stroke="white"/>
<line x1="39.5" y1="8" x2="39.5" y2="41" stroke="white"/>
<line x1="61" y1="41.5" x2="39" y2="41.5" stroke="white"/>
</svg>
